# xmcd CD database file
#
# Track frame offsets:
#	150
#	20988
#	44738
#	62705
#	82974
#	105107
#	126616
#	146299
#	167422
#	184998
#	204644
#	222518
#	242502
#	260197
#	283526
#	302402
#
# Disc length: 4306 seconds
#
# Revision: 11
# Processed by: cddbd v1.5.1PL0 Copyright (c) Steve Scherf et al.
# Submitted via: CDex 1.50
#
DISCID=ee10d010
DTITLE=Various Artist - The Best of DETECTIVE CONAN
DYEAR=2001
DGENRE=Classical
TTITLE0=Nazo
TTITLE1=UnnmeiNoRuurettoMawashite
TTITLE2=GiriGirichop
TTITLE3=Mysterious Eyes
TTITLE4=KoiWa strill,shock,suspense
TTITLE5=HikariToKageNoRomann
TTITLE6=KimigainaiNatsu
TTITLE7=NegaigotoHitotsudake
TTITLE8=KouriNoUeniTatsuyouni
TTITLE9=Still for your love
TTITLE10=Free Magic
TTITLE11=Secret of my heart
TTITLE12=NatsuNoMaboroshi
TTITLE13=ShoujyoNoKoroniModottamitaini
TTITLE14=ONE
TTITLE15=Anatagairukara
EXTD=YEAR: 2001
EXTT0=Miho Komatsu
EXTT1=ZARD
EXTT2=B'z
EXTT3=GARNET CROW
EXTT4=Rina Aiuchi
EXTT5=Keiko Utoku
EXTT6=DEEN
EXTT7=Miho Komatsu
EXTT8=Miho Komatsu
EXTT9=rumania montevideo
EXTT10=WAG
EXTT11=Mai Kuraki
EXTT12=GARNET CROW
EXTT13=ZARD
EXTT14=B'z
EXTT15=Miho Komatsu
PLAYORDER=
